<svg width="178" height="43" viewBox="0 0 178 43" fill="none" xmlns="http://www.w3.org/2000/svg">
<path d="M48.7308 9.47143V17.0978H56.7264C59.7381 17.0978 61.5769 15.8607 61.5769 13.299C61.5769 10.7374 59.7381 9.47143 56.7264 9.47143H48.7308ZM48.7308 20.4839V28.9692H47.3427C46.6685 28.9692 46.022 28.6734 45.5452 28.1467C45.0685 27.62 44.8007 26.9056 44.8007 26.1607V6.08496H56.7532C62.8564 6.08496 65.48 8.49972 65.48 13.2992C65.48 18.0987 62.8564 20.4839 56.7532 20.4839H48.7308Z" fill="#F8F4E5"/>
<path d="M67.9716 7.47437H72.0145V28.9693H70.5253C70.1899 28.9693 69.8579 28.8964 69.5481 28.7546C69.2383 28.6129 68.9568 28.4051 68.7196 28.1431C68.4825 27.8812 68.2944 27.5702 68.1661 27.2279C68.0377 26.8857 67.9716 26.5188 67.9716 26.1484V7.47437Z" fill="#F8F4E5"/>
<path d="M84.8502 26.1426C86.3663 26.1426 88.2673 25.7672 90.1059 23.6736V17.4725C88.9056 16.386 86.3663 15.7492 84.8248 15.7492C81.6665 15.7492 79.5441 17.9845 79.5441 21.0774C79.5441 24.2288 81.6919 26.1426 84.8502 26.1426ZM77.649 15.189C79.1398 13.6873 81.161 12.9512 83.7637 12.9512C86.4672 12.9512 88.5644 13.8051 90.0554 15.513H90.1818L90.409 13.3037H94.2244V28.9703H90.5605L90.3081 26.4078H90.1816C88.6403 28.3216 86.4931 29.2639 83.7637 29.2639C81.161 29.2639 79.1398 28.5278 77.649 27.0261C76.1582 25.5244 75.4256 23.5513 75.4256 21.0781C75.4256 18.6341 76.1583 16.6907 77.6493 15.189" fill="#F8F4E5"/>
<path d="M166.564 26.1426C168.08 26.1426 169.981 25.7672 171.82 23.6736V17.4725C170.62 16.386 168.08 15.7492 166.539 15.7492C163.38 15.7492 161.258 17.9845 161.258 21.0774C161.258 24.2288 163.406 26.1426 166.564 26.1426ZM159.363 15.189C160.854 13.6873 162.875 12.9512 165.478 12.9512C168.181 12.9512 170.278 13.8051 171.769 15.513H171.896L172.123 13.3037H175.938V28.9703H172.274L172.022 26.4078H171.896C170.354 28.3216 168.207 29.2639 165.478 29.2639C162.875 29.2639 160.854 28.5278 159.363 27.0261C157.872 25.5244 157.14 23.5513 157.14 21.0781C157.14 18.6341 157.872 16.6907 159.363 15.189Z" fill="#F8F4E5"/>
<path d="M115.095 15.1594C116.51 16.6318 117.217 18.6047 117.217 21.0781V28.9687H113.099V21.0781C113.099 17.9274 111.001 16.0725 107.793 16.0725C104.634 16.0725 102.511 17.957 102.511 21.0193V28.9693H98.4691V13.3044H102.133L102.36 15.6015H102.487C104.078 13.8346 106.352 12.9512 109.258 12.9512C111.76 12.951 113.705 13.6871 115.095 15.1594Z" fill="#F8F4E5"/>
<path d="M134.475 19.9002C134.374 17.4562 132.529 16.043 129.522 16.043C126.996 16.043 125.075 17.5743 124.772 19.9002H134.475ZM138.72 22.4619H124.772C125.277 25.0532 127.324 26.0837 131.139 26.0837C132.337 26.0731 133.531 25.9252 134.702 25.6422C135.99 25.3474 137.002 25.0237 137.759 24.6409V28.0271C136.605 28.432 135.422 28.7276 134.222 28.9106C132.858 29.1348 131.482 29.2528 130.104 29.2638C124.014 29.2638 120.426 26.3489 120.426 21.1369C120.426 18.6929 121.26 16.7199 122.902 15.2182C124.545 13.7165 126.768 12.9509 129.548 12.9509C132.352 12.9509 134.601 13.6578 136.243 15.0716C137.886 16.4855 138.72 18.3985 138.72 20.8425V22.4619Z" fill="#F8F4E5"/>
<path d="M155.8 25.8187V28.9988C154.814 29.1662 153.817 29.2547 152.819 29.2638C149.914 29.2638 147.765 28.7044 146.401 27.6148C145.061 26.5256 144.379 24.5526 144.379 21.7551V16.308H140.059V13.3046H144.379V8.35754H148.422V13.3046H155.345V16.308H148.422V21.5786C148.422 24.7293 149.686 26.0545 153.046 26.0545L155.8 25.8187Z" fill="#F8F4E5"/>
<path d="M0 -0.000366211H14.085V15.5613H0V-0.000366211Z" fill="#F8F4E5"/>
<path d="M0 17.9009H14.085V33.4624H8.95166C6.57753 33.4624 4.30064 32.4204 2.62188 30.5657C0.943118 28.7109 0 26.1954 0 23.5724L0 17.9009Z" fill="#F8F4E5"/>
<path d="M30.4151 7.78162C30.4083 9.85194 29.6576 11.8345 28.328 13.2935C26.9985 14.7524 25.1989 15.5682 23.325 15.5614H16.2333V0.00163555H23.325C24.2529 -0.00198349 25.1724 0.196394 26.031 0.585439C26.8895 0.974483 27.6703 1.54657 28.3287 2.26903C28.9871 2.9915 29.5102 3.85018 29.8682 4.79604C30.2262 5.7419 30.412 6.7564 30.4151 7.78162Z" fill="#F8F4E5"/>
<path d="M30.415 25.5335C30.4085 27.6039 29.6579 29.5866 28.3283 31.0456C26.9987 32.5047 25.1989 33.3204 23.325 33.3134C22.397 33.317 21.4774 33.1186 20.6189 32.7296C19.7603 32.3406 18.9794 31.7685 18.321 31.0461C17.6625 30.3236 17.1393 29.4649 16.7812 28.5191C16.423 27.5732 16.2371 26.5587 16.2339 25.5335C16.2371 24.5082 16.423 23.4937 16.7812 22.5478C17.1393 21.602 17.6625 20.7433 18.321 20.0209C18.9794 19.2984 19.7603 18.7263 20.6189 18.3373C21.4774 17.9483 22.397 17.7499 23.325 17.7535C25.1989 17.7465 26.9987 18.5623 28.3283 20.0213C29.6579 21.4803 30.4085 23.463 30.415 25.5335Z" fill="#C2DB6F"/>
<path d="M117.616 41.3159C117.146 40.8599 116.911 40.2175 116.911 39.3887C116.911 38.5599 117.146 37.9175 117.616 37.4614C118.086 37.0049 118.737 36.7766 119.569 36.7766C120.281 36.7766 120.831 36.9368 121.219 37.2573C121.63 37.6228 121.905 38.144 121.989 38.7202L121.1 38.9394C121.084 38.7591 121.036 38.5842 120.958 38.4247C120.88 38.2653 120.774 38.1246 120.647 38.0106C120.407 37.8155 120.047 37.7179 119.569 37.7178C118.976 37.7178 118.538 37.8571 118.254 38.1358C117.971 38.4145 117.829 38.8323 117.829 39.3893C117.829 39.9462 117.971 40.3639 118.254 40.6426C118.538 40.9213 118.976 41.0607 119.569 41.0607C120.066 41.0607 120.429 40.9596 120.656 40.7575C120.907 40.5052 121.065 40.1594 121.1 39.7863L121.989 40.0055C121.905 40.5931 121.63 41.1264 121.214 41.5045C120.823 41.8356 120.274 42.0009 119.569 42.0003C118.736 42.0001 118.085 41.772 117.616 41.3159Z" fill="#F8F4E5"/>
<path d="M127.09 40.6525C127.377 40.3812 127.52 39.9599 127.52 39.3885C127.52 38.8245 127.383 38.4049 127.109 38.1298C126.835 37.8547 126.398 37.7171 125.799 37.7171C125.22 37.7171 124.789 37.8565 124.509 38.1351C124.228 38.4138 124.088 38.8316 124.088 39.3885C124.088 39.9665 124.233 40.3895 124.523 40.6577C124.813 40.9258 125.239 41.06 125.799 41.0602C126.373 41.0601 126.804 40.9242 127.09 40.6525ZM123.88 41.3158C123.401 40.8599 123.161 40.2174 123.161 39.3885C123.161 38.5524 123.401 37.9084 123.88 37.4563C124.359 37.0043 124.999 36.7778 125.8 36.7767C126.613 36.7767 127.258 37.005 127.733 37.4615C128.209 37.918 128.447 38.5603 128.447 39.3885C128.447 40.224 128.208 40.8682 127.729 41.321C127.249 41.7738 126.606 42.0001 125.799 41.9998C124.999 41.9998 124.359 41.7718 123.88 41.3158" fill="#F8F4E5"/>
<path d="M134.101 37.3302C134.423 37.6996 134.584 38.2463 134.584 38.9704V41.8955H133.666V39.2216C133.666 38.7058 133.558 38.3245 133.34 38.0778C133.123 37.8311 132.794 37.7073 132.352 37.7066C132.14 37.6915 131.928 37.7272 131.73 37.8111C131.531 37.8949 131.352 38.0251 131.203 38.1926C130.935 38.5159 130.801 38.9945 130.801 39.6286V41.8955H129.875V36.8816H130.66L130.802 38.2289H130.821C130.95 37.8032 131.192 37.4302 131.515 37.1582C131.853 36.8947 132.26 36.7605 132.674 36.7761C133.304 36.7761 133.78 36.9608 134.101 37.3302Z" fill="#F8F4E5"/>
<path d="M136.735 41.6034C136.546 41.4905 136.382 41.3324 136.255 41.1407C136.128 40.949 136.042 40.7285 136.002 40.4952L136.863 40.2553C136.885 40.4054 136.935 40.5489 137.01 40.6767C137.084 40.8044 137.182 40.9137 137.297 40.9975C137.592 41.1756 137.926 41.2588 138.262 41.2375C138.55 41.2559 138.838 41.193 139.099 41.0548C139.188 41.0045 139.262 40.9272 139.313 40.832C139.364 40.7367 139.39 40.6275 139.387 40.5168C139.385 40.4227 139.361 40.3308 139.317 40.2502C139.273 40.1696 139.211 40.103 139.137 40.057C138.894 39.915 138.629 39.8231 138.356 39.7857L137.421 39.6181C137.054 39.5834 136.708 39.4162 136.437 39.1426C136.327 39.018 136.241 38.87 136.184 38.7076C136.127 38.5452 136.1 38.3718 136.106 38.1978C136.099 37.989 136.142 37.7818 136.231 37.5974C136.32 37.4129 136.451 37.2575 136.612 37.147C136.949 36.8999 137.426 36.7761 138.044 36.7758C139.255 36.7758 139.977 37.3016 140.21 38.3533L139.359 38.5518C139.321 38.2396 139.173 37.9562 138.948 37.7631C138.693 37.5738 138.39 37.4806 138.084 37.4972C137.811 37.479 137.538 37.5401 137.294 37.6745C137.21 37.7239 137.141 37.7979 137.093 37.8883C137.046 37.9787 137.022 38.082 137.025 38.1865C137.037 38.5347 137.289 38.7541 137.781 38.8445L138.849 39.0218C139.247 39.0612 139.625 39.2283 139.937 39.5025C140.058 39.6215 140.154 39.7683 140.217 39.9326C140.281 40.097 140.311 40.2747 140.306 40.4534C140.313 40.6808 140.266 40.9063 140.17 41.1073C140.073 41.3083 139.931 41.4776 139.756 41.5982C139.39 41.8657 138.876 41.9994 138.215 41.9994C137.698 42.0172 137.187 41.8803 136.735 41.6034Z" fill="#F8F4E5"/>
<path d="M143.245 37.7796V40.9557L143.273 40.987H144.729V41.8955H143.387C143.243 41.9055 143.099 41.8835 142.964 41.8306C142.828 41.7777 142.703 41.6951 142.597 41.5877C142.5 41.4705 142.425 41.3327 142.377 41.1827C142.329 41.0328 142.309 40.8737 142.319 40.7149V37.7796L141.77 37.7901H141.155V36.8816H141.77L142.318 36.8921L142.536 35.3149H143.245V36.8925L143.831 36.8816H144.852V37.7901H143.831L143.245 37.7796Z" fill="#F8F4E5"/>
<path d="M147.113 36.8816L147.245 38.2498H147.264C147.359 37.8058 147.604 37.4188 147.949 37.1682C148.319 36.9363 148.74 36.8225 149.165 36.8394C149.246 36.8394 149.388 36.8466 149.59 36.8608L149.457 37.8109C149.319 37.7972 149.212 37.7901 149.136 37.7901C148.642 37.771 148.161 37.9595 147.789 38.3176C147.432 38.6692 147.254 39.1794 147.254 39.8484V41.8957H146.328V36.8816H147.113Z" fill="#F8F4E5"/>
<path d="M155.537 41.8955H154.761L154.62 40.5482H154.601C154.496 40.9846 154.259 41.368 153.929 41.6347C153.579 41.8896 153.166 42.0173 152.747 42C152.117 42 151.64 41.8154 151.315 41.446C150.99 41.0766 150.828 40.5301 150.828 39.8065V36.8815H151.755V39.5563C151.755 40.0721 151.864 40.4534 152.081 40.7003C152.299 40.9471 152.628 41.0708 153.069 41.0711C153.281 41.085 153.492 41.0488 153.689 40.9649C153.886 40.881 154.065 40.7514 154.213 40.5847C154.484 40.2607 154.62 39.7818 154.62 39.148V36.8815H155.537V41.8955Z" fill="#F8F4E5"/>
<path d="M158.931 37.7796V40.9557L158.959 40.987H160.416V41.8955H159.073C158.93 41.9056 158.786 41.8836 158.65 41.8307C158.514 41.7778 158.39 41.6951 158.283 41.5877C158.186 41.4705 158.111 41.3328 158.063 41.1828C158.015 41.0329 157.995 40.8737 158.004 40.7149V37.7796L157.456 37.7901H156.842V36.8816H157.456L158.004 36.8921L158.222 35.3149H158.931V36.8925L159.517 36.8816H160.538V37.7901H159.517L158.931 37.7796Z" fill="#F8F4E5"/>
<path d="M165.583 40.6525C165.87 40.3812 166.013 39.9599 166.013 39.3885C166.013 38.8245 165.876 38.4049 165.602 38.1298C165.327 37.8547 164.891 37.7171 164.292 37.7171C163.712 37.7171 163.282 37.8565 163.001 38.1351C162.721 38.4138 162.581 38.8316 162.581 39.3885C162.581 39.9665 162.726 40.3895 163.016 40.6577C163.306 40.9258 163.731 41.06 164.292 41.0602C164.866 41.0601 165.296 40.9242 165.583 40.6525ZM162.373 41.3158C161.893 40.8599 161.654 40.2174 161.654 39.3885C161.654 38.5524 161.894 37.9084 162.373 37.4563C162.852 37.0043 163.492 36.7778 164.292 36.7767C165.105 36.7767 165.75 37.005 166.226 37.4615C166.702 37.918 166.94 38.5603 166.94 39.3885C166.94 40.224 166.7 40.8682 166.221 41.321C165.742 41.7738 165.099 42.0001 164.292 41.9998C163.491 41.9998 162.851 41.7718 162.373 41.3158Z" fill="#F8F4E5"/>
<path d="M169.153 36.8816L169.285 38.2498H169.304C169.399 37.8058 169.644 37.4188 169.989 37.1682C170.359 36.9363 170.78 36.8225 171.205 36.8394C171.286 36.8394 171.428 36.8465 171.63 36.8608L171.497 37.8109C171.359 37.7972 171.252 37.7901 171.176 37.7901C170.683 37.7709 170.201 37.9594 169.829 38.3176C169.473 38.6692 169.295 39.1794 169.294 39.8484V41.8957H168.368V36.8816H169.153Z" fill="#F8F4E5"/>
<path d="M175.275 41.0183C175.532 40.8551 175.746 40.619 175.894 40.3342C176.046 40.0406 176.122 39.7059 176.112 39.3676L175.364 39.4929C174.854 39.5908 174.472 39.6725 174.22 39.7383C174 39.7889 173.792 39.8863 173.606 40.0248C173.53 40.083 173.468 40.1614 173.427 40.2527C173.386 40.344 173.366 40.4453 173.369 40.5474C173.367 40.6555 173.391 40.7623 173.439 40.8564C173.488 40.9504 173.558 41.0281 173.644 41.081C173.888 41.222 174.163 41.2869 174.438 41.2688C174.732 41.2693 175.021 41.1828 175.275 41.0183ZM176.409 37.2574C176.603 37.4152 176.759 37.6239 176.862 37.8646C176.965 38.1054 177.013 38.3707 177 38.6366V41.8955H176.226L176.102 40.6316H176.083C175.959 41.0505 175.706 41.4087 175.369 41.645C175.007 41.8894 174.588 42.0126 174.164 41.9998C173.725 42.026 173.29 41.8982 172.921 41.6345C172.774 41.5233 172.655 41.3731 172.575 41.1979C172.495 41.0226 172.456 40.8279 172.462 40.6316C172.453 40.4783 172.472 40.3247 172.518 40.1795C172.563 40.0343 172.634 39.9004 172.726 39.7856C172.966 39.5463 173.257 39.3806 173.573 39.3049C174.157 39.1438 174.749 39.0183 175.345 38.9287L176.112 38.7933L176.102 38.5843C176.083 37.9219 175.658 37.5911 174.825 37.5917C174.39 37.5917 174.069 37.6804 173.861 37.8577C173.751 37.962 173.662 38.0908 173.6 38.2356C173.538 38.3805 173.505 38.5382 173.502 38.6983L172.726 38.4882C172.737 38.2357 172.801 37.9896 172.913 37.7689C173.024 37.5483 173.18 37.3591 173.369 37.2163C173.809 36.9067 174.324 36.7533 174.844 36.7769C175.399 36.7467 175.948 36.9153 176.409 37.2576" fill="#F8F4E5"/>
</svg>
