<svg width="375" height="243" viewBox="0 0 375 243" fill="none" xmlns="http://www.w3.org/2000/svg">
<g filter="url(#filter0_d_517_645)">
<path d="M7.84845e-06 194.85C7.84845e-06 194.85 34.9832 235 187.686 235C340.389 235 376 194.3 376 194.3L375.373 -62H0L7.84845e-06 194.85Z" fill="#44BE3C"/>
<path d="M0 171.5C0 171.5 35 202 187.5 202C340 202 375 171.5 375 171.5L374.937 -68H0.0633623L0 171.5Z" fill="#14750D" fill-opacity="0.7"/>
<path d="M90.4489 66V52.9091H93.9091V55.2188H94.0625C94.3352 54.4517 94.7898 53.8466 95.4261 53.4034C96.0625 52.9602 96.8239 52.7386 97.7102 52.7386C98.608 52.7386 99.3722 52.9631 100.003 53.4119C100.634 53.8551 101.054 54.4574 101.264 55.2188H101.401C101.668 54.4688 102.151 53.8693 102.849 53.4205C103.554 52.9659 104.386 52.7386 105.347 52.7386C106.568 52.7386 107.56 53.1278 108.321 53.9062C109.088 54.679 109.472 55.7756 109.472 57.196V66H105.849V57.9119C105.849 57.1847 105.656 56.6392 105.27 56.2756C104.884 55.9119 104.401 55.7301 103.821 55.7301C103.162 55.7301 102.648 55.9403 102.278 56.3608C101.909 56.7756 101.724 57.3239 101.724 58.0057V66H98.2045V57.8352C98.2045 57.1932 98.0199 56.6818 97.6506 56.3011C97.2869 55.9205 96.8068 55.7301 96.2102 55.7301C95.8068 55.7301 95.4432 55.8324 95.1193 56.0369C94.8011 56.2358 94.5483 56.517 94.3608 56.8807C94.1733 57.2386 94.0795 57.6591 94.0795 58.142V66H90.4489ZM118.305 66.2557C116.959 66.2557 115.8 65.983 114.828 65.4375C113.862 64.8864 113.118 64.108 112.595 63.1023C112.072 62.0909 111.811 60.8949 111.811 59.5142C111.811 58.1676 112.072 56.9858 112.595 55.9688C113.118 54.9517 113.854 54.1591 114.803 53.5909C115.757 53.0227 116.876 52.7386 118.161 52.7386C119.024 52.7386 119.828 52.8778 120.572 53.1562C121.322 53.429 121.976 53.8409 122.533 54.392C123.095 54.9432 123.533 55.6364 123.845 56.4716C124.158 57.3011 124.314 58.2727 124.314 59.3864V60.3835H113.26V58.1335H120.896C120.896 57.6108 120.783 57.1477 120.555 56.7443C120.328 56.3409 120.013 56.0256 119.609 55.7983C119.212 55.5653 118.749 55.4489 118.22 55.4489C117.669 55.4489 117.18 55.5767 116.754 55.8324C116.334 56.0824 116.004 56.4205 115.766 56.8466C115.527 57.267 115.405 57.7358 115.399 58.2528V60.392C115.399 61.0398 115.518 61.5994 115.757 62.071C116.001 62.5426 116.345 62.9062 116.788 63.1619C117.232 63.4176 117.757 63.5455 118.365 63.5455C118.768 63.5455 119.138 63.4886 119.473 63.375C119.808 63.2614 120.095 63.0909 120.334 62.8636C120.572 62.6364 120.754 62.358 120.879 62.0284L124.237 62.25C124.067 63.0568 123.717 63.7614 123.189 64.3636C122.666 64.9602 121.99 65.4261 121.161 65.7614C120.337 66.0909 119.385 66.2557 118.305 66.2557ZM132.649 66.2557C131.303 66.2557 130.143 65.983 129.172 65.4375C128.206 64.8864 127.462 64.108 126.939 63.1023C126.416 62.0909 126.155 60.8949 126.155 59.5142C126.155 58.1676 126.416 56.9858 126.939 55.9688C127.462 54.9517 128.197 54.1591 129.146 53.5909C130.101 53.0227 131.22 52.7386 132.504 52.7386C133.368 52.7386 134.172 52.8778 134.916 53.1562C135.666 53.429 136.32 53.8409 136.876 54.392C137.439 54.9432 137.876 55.6364 138.189 56.4716C138.501 57.3011 138.658 58.2727 138.658 59.3864V60.3835H127.604V58.1335H135.24C135.24 57.6108 135.126 57.1477 134.899 56.7443C134.672 56.3409 134.357 56.0256 133.953 55.7983C133.555 55.5653 133.092 55.4489 132.564 55.4489C132.013 55.4489 131.524 55.5767 131.098 55.8324C130.678 56.0824 130.348 56.4205 130.109 56.8466C129.871 57.267 129.749 57.7358 129.743 58.2528V60.392C129.743 61.0398 129.862 61.5994 130.101 62.071C130.345 62.5426 130.689 62.9062 131.132 63.1619C131.575 63.4176 132.101 63.5455 132.709 63.5455C133.112 63.5455 133.482 63.4886 133.817 63.375C134.152 63.2614 134.439 63.0909 134.678 62.8636C134.916 62.6364 135.098 62.358 135.223 62.0284L138.581 62.25C138.411 63.0568 138.061 63.7614 137.533 64.3636C137.01 64.9602 136.334 65.4261 135.504 65.7614C134.68 66.0909 133.729 66.2557 132.649 66.2557ZM147.99 52.9091V55.6364H140.107V52.9091H147.99ZM141.896 49.7727H145.527V61.9773C145.527 62.3125 145.578 62.5739 145.68 62.7614C145.783 62.9432 145.925 63.071 146.107 63.1449C146.294 63.2187 146.51 63.2557 146.754 63.2557C146.925 63.2557 147.095 63.2415 147.266 63.2131C147.436 63.179 147.567 63.1534 147.658 63.1364L148.229 65.8381C148.047 65.8949 147.791 65.9602 147.462 66.0341C147.132 66.1136 146.732 66.1619 146.26 66.179C145.385 66.2131 144.618 66.0966 143.959 65.8295C143.305 65.5625 142.797 65.1477 142.433 64.5852C142.07 64.0227 141.891 63.3125 141.896 62.4545V49.7727ZM150.355 66V52.9091H153.986V66H150.355ZM152.179 51.2216C151.639 51.2216 151.176 51.0426 150.79 50.6847C150.409 50.321 150.219 49.8864 150.219 49.3807C150.219 48.8807 150.409 48.4517 150.79 48.0938C151.176 47.7301 151.639 47.5483 152.179 47.5483C152.719 47.5483 153.179 47.7301 153.56 48.0938C153.946 48.4517 154.139 48.8807 154.139 49.3807C154.139 49.8864 153.946 50.321 153.56 50.6847C153.179 51.0426 152.719 51.2216 152.179 51.2216ZM160.525 58.4318V66H156.894V52.9091H160.354V55.2188H160.508C160.798 54.4574 161.283 53.8551 161.965 53.4119C162.647 52.9631 163.474 52.7386 164.445 52.7386C165.354 52.7386 166.147 52.9375 166.823 53.3352C167.499 53.733 168.025 54.3011 168.4 55.0398C168.775 55.7727 168.962 56.6477 168.962 57.6648V66H165.332V58.3125C165.337 57.5114 165.133 56.8864 164.718 56.4375C164.303 55.983 163.732 55.7557 163.005 55.7557C162.516 55.7557 162.085 55.8608 161.71 56.071C161.34 56.2812 161.05 56.5881 160.84 56.9915C160.636 57.3892 160.531 57.8693 160.525 58.4318ZM177.722 71.1818C176.545 71.1818 175.537 71.0199 174.696 70.696C173.861 70.3778 173.196 69.9432 172.702 69.392C172.207 68.8409 171.886 68.2216 171.739 67.5341L175.097 67.0824C175.199 67.3438 175.361 67.5881 175.582 67.8153C175.804 68.0426 176.097 68.2244 176.46 68.3608C176.83 68.5028 177.278 68.5739 177.807 68.5739C178.597 68.5739 179.247 68.3807 179.759 67.9943C180.276 67.6136 180.534 66.9744 180.534 66.0767V63.6818H180.381C180.222 64.0455 179.983 64.3892 179.665 64.7131C179.347 65.0369 178.938 65.3011 178.438 65.5057C177.938 65.7102 177.341 65.8125 176.648 65.8125C175.665 65.8125 174.77 65.5852 173.963 65.1307C173.162 64.6705 172.523 63.9687 172.045 63.0256C171.574 62.0767 171.338 60.8778 171.338 59.429C171.338 57.946 171.58 56.7074 172.062 55.7131C172.545 54.7187 173.188 53.9744 173.989 53.4801C174.795 52.9858 175.679 52.7386 176.639 52.7386C177.372 52.7386 177.986 52.8636 178.48 53.1136C178.974 53.358 179.372 53.6648 179.673 54.0341C179.98 54.3977 180.216 54.7557 180.381 55.108H180.517V52.9091H184.122V66.1278C184.122 67.2415 183.849 68.1733 183.304 68.9233C182.759 69.6733 182.003 70.2358 181.037 70.6108C180.077 70.9915 178.972 71.1818 177.722 71.1818ZM177.798 63.0852C178.384 63.0852 178.878 62.9403 179.281 62.6506C179.69 62.3551 180.003 61.9347 180.219 61.3892C180.44 60.8381 180.551 60.179 180.551 59.4119C180.551 58.6449 180.443 57.9801 180.227 57.4176C180.011 56.8494 179.699 56.4091 179.29 56.0966C178.881 55.7841 178.384 55.6278 177.798 55.6278C177.202 55.6278 176.699 55.7898 176.29 56.1136C175.881 56.4318 175.571 56.875 175.361 57.4432C175.151 58.0114 175.045 58.6676 175.045 59.4119C175.045 60.1676 175.151 60.821 175.361 61.3722C175.577 61.9176 175.886 62.3409 176.29 62.642C176.699 62.9375 177.202 63.0852 177.798 63.0852Z" fill="#03484C"/>
<path d="M90.4489 84.4568V71.3659H93.9091V73.6756H94.0625C94.3352 72.9085 94.7898 72.3034 95.4261 71.8602C96.0625 71.417 96.8239 71.1955 97.7102 71.1955C98.608 71.1955 99.3722 71.4199 100.003 71.8687C100.634 72.3119 101.054 72.9142 101.264 73.6756H101.401C101.668 72.9256 102.151 72.3261 102.849 71.8773C103.554 71.4227 104.386 71.1955 105.347 71.1955C106.568 71.1955 107.56 71.5847 108.321 72.3631C109.088 73.1358 109.472 74.2324 109.472 75.6528V84.4568H105.849V76.3687C105.849 75.6415 105.656 75.096 105.27 74.7324C104.884 74.3687 104.401 74.1869 103.821 74.1869C103.162 74.1869 102.648 74.3972 102.278 74.8176C101.909 75.2324 101.724 75.7807 101.724 76.4625V84.4568H98.2045V76.292C98.2045 75.65 98.0199 75.1386 97.6506 74.758C97.2869 74.3773 96.8068 74.1869 96.2102 74.1869C95.8068 74.1869 95.4432 74.2892 95.1193 74.4937C94.8011 74.6926 94.5483 74.9739 94.3608 75.3375C94.1733 75.6955 94.0795 76.1159 94.0795 76.5989V84.4568H90.4489ZM118.254 84.7125C116.93 84.7125 115.786 84.4312 114.82 83.8687C113.859 83.3006 113.118 82.5108 112.595 81.4994C112.072 80.4824 111.811 79.3034 111.811 77.9625C111.811 76.6102 112.072 75.4284 112.595 74.417C113.118 73.4 113.859 72.6102 114.82 72.0477C115.786 71.4795 116.93 71.1955 118.254 71.1955C119.578 71.1955 120.72 71.4795 121.68 72.0477C122.646 72.6102 123.391 73.4 123.913 74.417C124.436 75.4284 124.697 76.6102 124.697 77.9625C124.697 79.3034 124.436 80.4824 123.913 81.4994C123.391 82.5108 122.646 83.3006 121.68 83.8687C120.72 84.4312 119.578 84.7125 118.254 84.7125ZM118.271 81.9C118.874 81.9 119.376 81.7295 119.78 81.3886C120.183 81.042 120.487 80.5705 120.692 79.9739C120.902 79.3773 121.007 78.6983 121.007 77.9369C121.007 77.1756 120.902 76.4966 120.692 75.9C120.487 75.3034 120.183 74.8318 119.78 74.4852C119.376 74.1386 118.874 73.9653 118.271 73.9653C117.663 73.9653 117.152 74.1386 116.737 74.4852C116.328 74.8318 116.018 75.3034 115.808 75.9C115.604 76.4966 115.501 77.1756 115.501 77.9369C115.501 78.6983 115.604 79.3773 115.808 79.9739C116.018 80.5705 116.328 81.042 116.737 81.3886C117.152 81.7295 117.663 81.9 118.271 81.9ZM127.126 84.4568V67.0023H130.757V73.5648H130.868C131.027 73.2125 131.257 72.8545 131.558 72.4909C131.865 72.1216 132.263 71.8148 132.751 71.5705C133.246 71.3205 133.859 71.1955 134.592 71.1955C135.547 71.1955 136.428 71.4455 137.234 71.9455C138.041 72.4398 138.686 73.1869 139.169 74.1869C139.652 75.1812 139.893 76.4284 139.893 77.9284C139.893 79.3886 139.658 80.6216 139.186 81.6273C138.72 82.6273 138.084 83.3858 137.277 83.9028C136.476 84.4142 135.578 84.6699 134.584 84.6699C133.879 84.6699 133.28 84.5534 132.786 84.3205C132.297 84.0875 131.896 83.7949 131.584 83.4426C131.271 83.0847 131.033 82.7239 130.868 82.3602H130.706V84.4568H127.126ZM130.68 77.9114C130.68 78.6898 130.788 79.3687 131.004 79.9483C131.22 80.5278 131.533 80.9795 131.942 81.3034C132.351 81.6216 132.848 81.7807 133.433 81.7807C134.024 81.7807 134.524 81.6187 134.933 81.2949C135.342 80.9653 135.652 80.5108 135.862 79.9312C136.078 79.346 136.186 78.6727 136.186 77.9114C136.186 77.1557 136.081 76.4909 135.871 75.917C135.661 75.3432 135.351 74.8943 134.942 74.5705C134.533 74.2466 134.03 74.0847 133.433 74.0847C132.842 74.0847 132.342 74.2409 131.933 74.5534C131.53 74.8659 131.22 75.3091 131.004 75.883C130.788 76.4568 130.68 77.133 130.68 77.9114ZM142.316 84.4568V71.3659H145.947V84.4568H142.316ZM144.14 69.6784C143.6 69.6784 143.137 69.4994 142.751 69.1415C142.37 68.7778 142.18 68.3432 142.18 67.8375C142.18 67.3375 142.37 66.9085 142.751 66.5506C143.137 66.1869 143.6 66.0051 144.14 66.0051C144.68 66.0051 145.14 66.1869 145.521 66.5506C145.907 66.9085 146.1 67.3375 146.1 67.8375C146.1 68.3432 145.907 68.7778 145.521 69.1415C145.14 69.4994 144.68 69.6784 144.14 69.6784ZM152.486 67.0023V84.4568H148.855V67.0023H152.486ZM161.36 84.7125C160.013 84.7125 158.854 84.4398 157.883 83.8943C156.917 83.3432 156.173 82.5648 155.65 81.5591C155.127 80.5477 154.866 79.3517 154.866 77.971C154.866 76.6244 155.127 75.4426 155.65 74.4256C156.173 73.4085 156.908 72.6159 157.857 72.0477C158.812 71.4795 159.931 71.1955 161.215 71.1955C162.079 71.1955 162.883 71.3347 163.627 71.6131C164.377 71.8858 165.031 72.2977 165.587 72.8489C166.15 73.4 166.587 74.0932 166.9 74.9284C167.212 75.758 167.369 76.7295 167.369 77.8432V78.8403H156.315V76.5903H163.951C163.951 76.0676 163.837 75.6045 163.61 75.2011C163.383 74.7977 163.067 74.4824 162.664 74.2551C162.266 74.0222 161.803 73.9057 161.275 73.9057C160.724 73.9057 160.235 74.0335 159.809 74.2892C159.388 74.5392 159.059 74.8773 158.82 75.3034C158.582 75.7239 158.46 76.1926 158.454 76.7097V78.8489C158.454 79.4966 158.573 80.0562 158.812 80.5278C159.056 80.9994 159.4 81.3631 159.843 81.6187C160.286 81.8744 160.812 82.0023 161.42 82.0023C161.823 82.0023 162.192 81.9455 162.528 81.8318C162.863 81.7182 163.15 81.5477 163.388 81.3205C163.627 81.0932 163.809 80.8148 163.934 80.4852L167.292 80.7068C167.121 81.5136 166.772 82.2182 166.244 82.8205C165.721 83.417 165.045 83.883 164.215 84.2182C163.391 84.5477 162.44 84.7125 161.36 84.7125Z" fill="#03484C"/>
<g clip-path="url(#clip0_517_645)">
<path d="M55.8679 52H70.1321C71.9535 51.9991 73.7573 52.3145 75.4403 52.9281C77.1233 53.5417 78.6525 54.4416 79.9405 55.5762C81.2285 56.7109 82.2499 58.058 82.9465 59.5407C83.6431 61.0233 84.0011 62.6124 84 64.217V76.783C84.0011 78.3876 83.6431 79.9767 82.9465 81.4593C82.2499 82.942 81.2285 84.2891 79.9405 85.4238C78.6525 86.5584 77.1233 87.4583 75.4403 88.0719C73.7573 88.6856 71.9535 89.0009 70.1321 89H55.8679C54.0465 89.0009 52.2427 88.6856 50.5597 88.0719C48.8767 87.4583 47.3475 86.5584 46.0595 85.4238C44.7715 84.2891 43.7501 82.942 43.0535 81.4593C42.357 79.9767 41.999 78.3876 42 76.783V64.217C41.999 62.6124 42.357 61.0233 43.0535 59.5407C43.7501 58.058 44.7715 56.7109 46.0595 55.5762C47.3475 54.4416 48.8767 53.5417 50.5597 52.9281C52.2427 52.3145 54.0465 51.9991 55.8679 52Z" fill="url(#paint0_linear_517_645)"/>
<path d="M70.3275 73.8882L72.4883 75.4729C73.0166 75.8615 73.2807 76.057 73.4947 76.1012C73.7067 76.1471 73.9301 76.1276 74.1277 76.0458C74.3253 75.9641 74.4851 75.8251 74.5804 75.6521C74.6755 75.4776 74.6755 75.1867 74.6755 74.5677V66.423C74.6755 65.8157 74.6755 65.5132 74.5804 65.3386C74.4851 65.1656 74.3253 65.0266 74.1277 64.9449C73.9301 64.8631 73.7067 64.8436 73.4947 64.8895C73.2807 64.936 73.0166 65.1222 72.4883 65.5178L70.3275 67.1025C70.0875 67.2643 69.863 67.4433 69.6566 67.6377C69.3731 67.9334 69.1836 68.2899 69.1072 68.671C69.0696 68.9349 69.0572 69.2011 69.0702 69.4668V71.5193C69.0572 71.785 69.0696 72.0512 69.1072 72.3151C69.1836 72.6962 69.3731 73.0527 69.6566 73.3483C69.8628 73.5444 70.0872 73.725 70.3275 73.8882V73.8882Z" fill="white"/>
<path d="M51.3245 66.9187C51.3245 66.1577 51.3245 65.7761 51.4936 65.4852C51.6421 65.2288 51.8788 65.0204 52.1698 64.8895C52.5 64.7406 52.9332 64.7406 53.797 64.7406H61.6793C63.943 64.7406 65.0762 64.7406 65.94 65.1292C66.7004 65.4713 67.3189 66.0161 67.7072 66.686C68.1483 67.4469 68.1483 68.4452 68.1483 70.4372V74.0813C68.1483 74.8423 68.1483 75.2239 67.9792 75.5148C67.8307 75.7712 67.5941 75.9797 67.303 76.1105C66.9728 76.2594 66.5396 76.2594 65.6759 76.2594H57.791C55.5272 76.2594 54.394 76.2594 53.5302 75.8708C52.7698 75.5288 52.1513 74.9839 51.763 74.314C51.3219 73.5531 51.3219 72.5548 51.3219 70.5628L51.3245 66.9187Z" fill="white"/>
</g>
<path d="M329 49H342.893V64.3493H329V49Z" fill="#F8F4E5"/>
<path d="M329 66.657H342.893V82.0061H337.83C335.488 82.0061 333.242 80.9783 331.586 79.1489C329.93 77.3195 329 74.8383 329 72.2511V66.657Z" fill="#F8F4E5"/>
<path d="M359 56.6739C358.993 58.7159 358.253 60.6715 356.942 62.1105C355.63 63.5495 353.855 64.3542 352.007 64.3475H345.012V49H352.007C352.922 48.9965 353.829 49.1921 354.676 49.5759C355.523 49.9596 356.293 50.5239 356.942 51.2365C357.592 51.9491 358.108 52.7961 358.461 53.729C358.814 54.662 358.997 55.6626 359 56.6739Z" fill="#F8F4E5"/>
<path d="M359 74.1853C358.994 76.2275 358.253 78.1832 356.942 79.6223C355.63 81.0614 353.855 81.866 352.007 81.8592C351.091 81.8627 350.184 81.667 349.337 81.2833C348.491 80.8996 347.72 80.3353 347.071 79.6227C346.421 78.9101 345.905 78.0632 345.552 77.1302C345.199 76.1973 345.016 75.1966 345.012 74.1853C345.016 73.1741 345.199 72.1734 345.552 71.2404C345.905 70.3075 346.421 69.4606 347.071 68.748C347.72 68.0354 348.491 67.4711 349.337 67.0874C350.184 66.7037 351.091 66.508 352.007 66.5115C353.855 66.5047 355.63 67.3093 356.942 68.7484C358.253 70.1875 358.994 72.1432 359 74.1853Z" fill="#C2DB6F"/>
</g>
<defs>
<filter id="filter0_d_517_645" x="-4" y="-68" width="384" height="311" filterUnits="userSpaceOnUse" color-interpolation-filters="sRGB">
<feFlood flood-opacity="0" result="BackgroundImageFix"/>
<feColorMatrix in="SourceAlpha" type="matrix" values="0 0 0 0 0 0 0 0 0 0 0 0 0 0 0 0 0 0 127 0" result="hardAlpha"/>
<feOffset dy="4"/>
<feGaussianBlur stdDeviation="2"/>
<feComposite in2="hardAlpha" operator="out"/>
<feColorMatrix type="matrix" values="0 0 0 0 0 0 0 0 0 0 0 0 0 0 0 0 0 0 0.25 0"/>
<feBlend mode="normal" in2="BackgroundImageFix" result="effect1_dropShadow_517_645"/>
<feBlend mode="normal" in="SourceGraphic" in2="effect1_dropShadow_517_645" result="shape"/>
</filter>
<linearGradient id="paint0_linear_517_645" x1="63" y1="52" x2="63" y2="89" gradientUnits="userSpaceOnUse">
<stop stop-color="#03484C"/>
<stop offset="1" stop-color="#53AC59"/>
</linearGradient>
<clipPath id="clip0_517_645">
<rect width="42" height="37" fill="white" transform="translate(42 52)"/>
</clipPath>
</defs>
</svg>
