<svg width="375" height="262" viewBox="0 0 375 262" fill="none" xmlns="http://www.w3.org/2000/svg">
<g filter="url(#filter0_d_498_100)">
<path d="M0 190.5C0 190.5 35 221 187.5 221C340 221 375 190.5 375 190.5L374.937 -49H0.0633623L0 190.5Z" fill="#2A7650"/>
<path d="M7.84845e-06 213.85C7.84845e-06 213.85 34.9832 254 187.686 254C340.389 254 376 213.3 376 213.3L375.373 -43H0L7.84845e-06 213.85Z" fill="#3B8952" fill-opacity="0.7"/>
<path d="M90.4489 85V71.9091H93.9091V74.2188H94.0625C94.3352 73.4517 94.7898 72.8466 95.4261 72.4034C96.0625 71.9602 96.8239 71.7386 97.7102 71.7386C98.608 71.7386 99.3722 71.9631 100.003 72.4119C100.634 72.8551 101.054 73.4574 101.264 74.2188H101.401C101.668 73.4688 102.151 72.8693 102.849 72.4205C103.554 71.9659 104.386 71.7386 105.347 71.7386C106.568 71.7386 107.56 72.1278 108.321 72.9062C109.088 73.679 109.472 74.7756 109.472 76.196V85H105.849V76.9119C105.849 76.1847 105.656 75.6392 105.27 75.2756C104.884 74.9119 104.401 74.7301 103.821 74.7301C103.162 74.7301 102.648 74.9403 102.278 75.3608C101.909 75.7756 101.724 76.3239 101.724 77.0057V85H98.2045V76.8352C98.2045 76.1932 98.0199 75.6818 97.6506 75.3011C97.2869 74.9205 96.8068 74.7301 96.2102 74.7301C95.8068 74.7301 95.4432 74.8324 95.1193 75.0369C94.8011 75.2358 94.5483 75.517 94.3608 75.8807C94.1733 76.2386 94.0795 76.6591 94.0795 77.142V85H90.4489ZM118.305 85.2557C116.959 85.2557 115.8 84.983 114.828 84.4375C113.862 83.8864 113.118 83.108 112.595 82.1023C112.072 81.0909 111.811 79.8949 111.811 78.5142C111.811 77.1676 112.072 75.9858 112.595 74.9688C113.118 73.9517 113.854 73.1591 114.803 72.5909C115.757 72.0227 116.876 71.7386 118.161 71.7386C119.024 71.7386 119.828 71.8778 120.572 72.1562C121.322 72.429 121.976 72.8409 122.533 73.392C123.095 73.9432 123.533 74.6364 123.845 75.4716C124.158 76.3011 124.314 77.2727 124.314 78.3864V79.3835H113.26V77.1335H120.896C120.896 76.6108 120.783 76.1477 120.555 75.7443C120.328 75.3409 120.013 75.0256 119.609 74.7983C119.212 74.5653 118.749 74.4489 118.22 74.4489C117.669 74.4489 117.18 74.5767 116.754 74.8324C116.334 75.0824 116.004 75.4205 115.766 75.8466C115.527 76.267 115.405 76.7358 115.399 77.2528V79.392C115.399 80.0398 115.518 80.5994 115.757 81.071C116.001 81.5426 116.345 81.9062 116.788 82.1619C117.232 82.4176 117.757 82.5455 118.365 82.5455C118.768 82.5455 119.138 82.4886 119.473 82.375C119.808 82.2614 120.095 82.0909 120.334 81.8636C120.572 81.6364 120.754 81.358 120.879 81.0284L124.237 81.25C124.067 82.0568 123.717 82.7614 123.189 83.3636C122.666 83.9602 121.99 84.4261 121.161 84.7614C120.337 85.0909 119.385 85.2557 118.305 85.2557ZM132.649 85.2557C131.303 85.2557 130.143 84.983 129.172 84.4375C128.206 83.8864 127.462 83.108 126.939 82.1023C126.416 81.0909 126.155 79.8949 126.155 78.5142C126.155 77.1676 126.416 75.9858 126.939 74.9688C127.462 73.9517 128.197 73.1591 129.146 72.5909C130.101 72.0227 131.22 71.7386 132.504 71.7386C133.368 71.7386 134.172 71.8778 134.916 72.1562C135.666 72.429 136.32 72.8409 136.876 73.392C137.439 73.9432 137.876 74.6364 138.189 75.4716C138.501 76.3011 138.658 77.2727 138.658 78.3864V79.3835H127.604V77.1335H135.24C135.24 76.6108 135.126 76.1477 134.899 75.7443C134.672 75.3409 134.357 75.0256 133.953 74.7983C133.555 74.5653 133.092 74.4489 132.564 74.4489C132.013 74.4489 131.524 74.5767 131.098 74.8324C130.678 75.0824 130.348 75.4205 130.109 75.8466C129.871 76.267 129.749 76.7358 129.743 77.2528V79.392C129.743 80.0398 129.862 80.5994 130.101 81.071C130.345 81.5426 130.689 81.9062 131.132 82.1619C131.575 82.4176 132.101 82.5455 132.709 82.5455C133.112 82.5455 133.482 82.4886 133.817 82.375C134.152 82.2614 134.439 82.0909 134.678 81.8636C134.916 81.6364 135.098 81.358 135.223 81.0284L138.581 81.25C138.411 82.0568 138.061 82.7614 137.533 83.3636C137.01 83.9602 136.334 84.4261 135.504 84.7614C134.68 85.0909 133.729 85.2557 132.649 85.2557ZM147.99 71.9091V74.6364H140.107V71.9091H147.99ZM141.896 68.7727H145.527V80.9773C145.527 81.3125 145.578 81.5739 145.68 81.7614C145.783 81.9432 145.925 82.071 146.107 82.1449C146.294 82.2187 146.51 82.2557 146.754 82.2557C146.925 82.2557 147.095 82.2415 147.266 82.2131C147.436 82.179 147.567 82.1534 147.658 82.1364L148.229 84.8381C148.047 84.8949 147.791 84.9602 147.462 85.0341C147.132 85.1136 146.732 85.1619 146.26 85.179C145.385 85.2131 144.618 85.0966 143.959 84.8295C143.305 84.5625 142.797 84.1477 142.433 83.5852C142.07 83.0227 141.891 82.3125 141.896 81.4545V68.7727ZM150.355 85V71.9091H153.986V85H150.355ZM152.179 70.2216C151.639 70.2216 151.176 70.0426 150.79 69.6847C150.409 69.321 150.219 68.8864 150.219 68.3807C150.219 67.8807 150.409 67.4517 150.79 67.0938C151.176 66.7301 151.639 66.5483 152.179 66.5483C152.719 66.5483 153.179 66.7301 153.56 67.0938C153.946 67.4517 154.139 67.8807 154.139 68.3807C154.139 68.8864 153.946 69.321 153.56 69.6847C153.179 70.0426 152.719 70.2216 152.179 70.2216ZM160.525 77.4318V85H156.894V71.9091H160.354V74.2188H160.508C160.798 73.4574 161.283 72.8551 161.965 72.4119C162.647 71.9631 163.474 71.7386 164.445 71.7386C165.354 71.7386 166.147 71.9375 166.823 72.3352C167.499 72.733 168.025 73.3011 168.4 74.0398C168.775 74.7727 168.962 75.6477 168.962 76.6648V85H165.332V77.3125C165.337 76.5114 165.133 75.8864 164.718 75.4375C164.303 74.983 163.732 74.7557 163.005 74.7557C162.516 74.7557 162.085 74.8608 161.71 75.071C161.34 75.2812 161.05 75.5881 160.84 75.9915C160.636 76.3892 160.531 76.8693 160.525 77.4318ZM177.722 90.1818C176.545 90.1818 175.537 90.0199 174.696 89.696C173.861 89.3778 173.196 88.9432 172.702 88.392C172.207 87.8409 171.886 87.2216 171.739 86.5341L175.097 86.0824C175.199 86.3438 175.361 86.5881 175.582 86.8153C175.804 87.0426 176.097 87.2244 176.46 87.3608C176.83 87.5028 177.278 87.5739 177.807 87.5739C178.597 87.5739 179.247 87.3807 179.759 86.9943C180.276 86.6136 180.534 85.9744 180.534 85.0767V82.6818H180.381C180.222 83.0455 179.983 83.3892 179.665 83.7131C179.347 84.0369 178.938 84.3011 178.438 84.5057C177.938 84.7102 177.341 84.8125 176.648 84.8125C175.665 84.8125 174.77 84.5852 173.963 84.1307C173.162 83.6705 172.523 82.9687 172.045 82.0256C171.574 81.0767 171.338 79.8778 171.338 78.429C171.338 76.946 171.58 75.7074 172.062 74.7131C172.545 73.7187 173.188 72.9744 173.989 72.4801C174.795 71.9858 175.679 71.7386 176.639 71.7386C177.372 71.7386 177.986 71.8636 178.48 72.1136C178.974 72.358 179.372 72.6648 179.673 73.0341C179.98 73.3977 180.216 73.7557 180.381 74.108H180.517V71.9091H184.122V85.1278C184.122 86.2415 183.849 87.1733 183.304 87.9233C182.759 88.6733 182.003 89.2358 181.037 89.6108C180.077 89.9915 178.972 90.1818 177.722 90.1818ZM177.798 82.0852C178.384 82.0852 178.878 81.9403 179.281 81.6506C179.69 81.3551 180.003 80.9347 180.219 80.3892C180.44 79.8381 180.551 79.179 180.551 78.4119C180.551 77.6449 180.443 76.9801 180.227 76.4176C180.011 75.8494 179.699 75.4091 179.29 75.0966C178.881 74.7841 178.384 74.6278 177.798 74.6278C177.202 74.6278 176.699 74.7898 176.29 75.1136C175.881 75.4318 175.571 75.875 175.361 76.4432C175.151 77.0114 175.045 77.6676 175.045 78.4119C175.045 79.1676 175.151 79.821 175.361 80.3722C175.577 80.9176 175.886 81.3409 176.29 81.642C176.699 81.9375 177.202 82.0852 177.798 82.0852Z" fill="#03484C"/>
<path d="M90.4489 103.457V90.3659H93.9091V92.6756H94.0625C94.3352 91.9086 94.7898 91.3034 95.4261 90.8603C96.0625 90.4171 96.8239 90.1955 97.7102 90.1955C98.608 90.1955 99.3722 90.4199 100.003 90.8688C100.634 91.312 101.054 91.9142 101.264 92.6756H101.401C101.668 91.9256 102.151 91.3262 102.849 90.8773C103.554 90.4228 104.386 90.1955 105.347 90.1955C106.568 90.1955 107.56 90.5847 108.321 91.3631C109.088 92.1358 109.472 93.2324 109.472 94.6529V103.457H105.849V95.3688C105.849 94.6415 105.656 94.0961 105.27 93.7324C104.884 93.3688 104.401 93.187 103.821 93.187C103.162 93.187 102.648 93.3972 102.278 93.8176C101.909 94.2324 101.724 94.7807 101.724 95.4625V103.457H98.2045V95.2921C98.2045 94.65 98.0199 94.1387 97.6506 93.758C97.2869 93.3773 96.8068 93.187 96.2102 93.187C95.8068 93.187 95.4432 93.2892 95.1193 93.4938C94.8011 93.6926 94.5483 93.9739 94.3608 94.3375C94.1733 94.6955 94.0795 95.1159 94.0795 95.5989V103.457H90.4489ZM118.254 103.713C116.93 103.713 115.786 103.431 114.82 102.869C113.859 102.301 113.118 101.511 112.595 100.499C112.072 99.4824 111.811 98.3034 111.811 96.9625C111.811 95.6103 112.072 94.4284 112.595 93.4171C113.118 92.4 113.859 91.6103 114.82 91.0478C115.786 90.4796 116.93 90.1955 118.254 90.1955C119.578 90.1955 120.72 90.4796 121.68 91.0478C122.646 91.6103 123.391 92.4 123.913 93.4171C124.436 94.4284 124.697 95.6103 124.697 96.9625C124.697 98.3034 124.436 99.4824 123.913 100.499C123.391 101.511 122.646 102.301 121.68 102.869C120.72 103.431 119.578 103.713 118.254 103.713ZM118.271 100.9C118.874 100.9 119.376 100.73 119.78 100.389C120.183 100.042 120.487 99.5705 120.692 98.9739C120.902 98.3773 121.007 97.6983 121.007 96.937C121.007 96.1756 120.902 95.4966 120.692 94.9C120.487 94.3034 120.183 93.8318 119.78 93.4853C119.376 93.1387 118.874 92.9654 118.271 92.9654C117.663 92.9654 117.152 93.1387 116.737 93.4853C116.328 93.8318 116.018 94.3034 115.808 94.9C115.604 95.4966 115.501 96.1756 115.501 96.937C115.501 97.6983 115.604 98.3773 115.808 98.9739C116.018 99.5705 116.328 100.042 116.737 100.389C117.152 100.73 117.663 100.9 118.271 100.9ZM127.126 103.457V86.0023H130.757V92.5648H130.868C131.027 92.2125 131.257 91.8546 131.558 91.4909C131.865 91.1216 132.263 90.8148 132.751 90.5705C133.246 90.3205 133.859 90.1955 134.592 90.1955C135.547 90.1955 136.428 90.4455 137.234 90.9455C138.041 91.4398 138.686 92.187 139.169 93.187C139.652 94.1813 139.893 95.4284 139.893 96.9284C139.893 98.3887 139.658 99.6216 139.186 100.627C138.72 101.627 138.084 102.386 137.277 102.903C136.476 103.414 135.578 103.67 134.584 103.67C133.879 103.67 133.28 103.553 132.786 103.32C132.297 103.088 131.896 102.795 131.584 102.443C131.271 102.085 131.033 101.724 130.868 101.36H130.706V103.457H127.126ZM130.68 96.9114C130.68 97.6898 130.788 98.3688 131.004 98.9483C131.22 99.5279 131.533 99.9796 131.942 100.303C132.351 100.622 132.848 100.781 133.433 100.781C134.024 100.781 134.524 100.619 134.933 100.295C135.342 99.9654 135.652 99.5108 135.862 98.9313C136.078 98.3461 136.186 97.6728 136.186 96.9114C136.186 96.1557 136.081 95.4909 135.871 94.9171C135.661 94.3432 135.351 93.8943 134.942 93.5705C134.533 93.2466 134.03 93.0847 133.433 93.0847C132.842 93.0847 132.342 93.2409 131.933 93.5534C131.53 93.8659 131.22 94.3091 131.004 94.883C130.788 95.4568 130.68 96.133 130.68 96.9114ZM142.316 103.457V90.3659H145.947V103.457H142.316ZM144.14 88.6784C143.6 88.6784 143.137 88.4995 142.751 88.1415C142.37 87.7779 142.18 87.3432 142.18 86.8375C142.18 86.3375 142.37 85.9086 142.751 85.5506C143.137 85.187 143.6 85.0051 144.14 85.0051C144.68 85.0051 145.14 85.187 145.521 85.5506C145.907 85.9086 146.1 86.3375 146.1 86.8375C146.1 87.3432 145.907 87.7779 145.521 88.1415C145.14 88.4995 144.68 88.6784 144.14 88.6784ZM152.486 86.0023V103.457H148.855V86.0023H152.486ZM161.36 103.713C160.013 103.713 158.854 103.44 157.883 102.894C156.917 102.343 156.173 101.565 155.65 100.559C155.127 99.5478 154.866 98.3517 154.866 96.9711C154.866 95.6245 155.127 94.4426 155.65 93.4256C156.173 92.4086 156.908 91.6159 157.857 91.0478C158.812 90.4796 159.931 90.1955 161.215 90.1955C162.079 90.1955 162.883 90.3347 163.627 90.6131C164.377 90.8858 165.031 91.2978 165.587 91.8489C166.15 92.4 166.587 93.0932 166.9 93.9284C167.212 94.758 167.369 95.7296 167.369 96.8432V97.8404H156.315V95.5904H163.951C163.951 95.0676 163.837 94.6046 163.61 94.2012C163.383 93.7978 163.067 93.4824 162.664 93.2551C162.266 93.0222 161.803 92.9057 161.275 92.9057C160.724 92.9057 160.235 93.0336 159.809 93.2892C159.388 93.5392 159.059 93.8773 158.82 94.3034C158.582 94.7239 158.46 95.1926 158.454 95.7097V97.8489C158.454 98.4966 158.573 99.0563 158.812 99.5279C159.056 99.9995 159.4 100.363 159.843 100.619C160.286 100.874 160.812 101.002 161.42 101.002C161.823 101.002 162.192 100.945 162.528 100.832C162.863 100.718 163.15 100.548 163.388 100.32C163.627 100.093 163.809 99.8148 163.934 99.4853L167.292 99.7068C167.121 100.514 166.772 101.218 166.244 101.82C165.721 102.417 165.045 102.883 164.215 103.218C163.391 103.548 162.44 103.713 161.36 103.713Z" fill="#03484C"/>
<g clip-path="url(#clip0_498_100)">
<path d="M40.5189 60H56.4811C58.5194 59.9989 60.538 60.3824 62.4213 61.1288C64.3047 61.8751 66.0159 62.9695 67.4572 64.3495C68.8985 65.7294 70.0416 67.3679 70.8211 69.1711C71.6006 70.9743 72.0012 72.9069 72 74.8585V90.1415C72.0012 92.0931 71.6006 94.0257 70.8211 95.8289C70.0416 97.6321 68.8985 99.2706 67.4572 100.651C66.0159 102.031 64.3047 103.125 62.4213 103.871C60.538 104.618 58.5194 105.001 56.4811 105H40.5189C38.4806 105.001 36.462 104.618 34.5787 103.871C32.6953 103.125 30.9841 102.031 29.5428 100.651C28.1015 99.2706 26.9584 97.6321 26.1789 95.8289C25.3994 94.0257 24.9988 92.0931 25 90.1415V74.8585C24.9988 72.9069 25.3994 70.9743 26.1789 69.1711C26.9584 67.3679 28.1015 65.7294 29.5428 64.3495C30.9841 62.9695 32.6953 61.8751 34.5787 61.1288C36.462 60.3824 38.4806 59.9989 40.5189 60Z" fill="url(#paint0_linear_498_100)"/>
<path d="M56.6999 86.6207L59.1178 88.5481C59.709 89.0207 60.0046 89.2585 60.2441 89.3123C60.4813 89.3681 60.7313 89.3443 60.9525 89.2449C61.1736 89.1455 61.3524 88.9765 61.459 88.766C61.5654 88.5538 61.5654 88.2 61.5654 87.4472V77.5415C61.5654 76.8028 61.5654 76.4349 61.459 76.2226C61.3524 76.0122 61.1736 75.8432 60.9525 75.7437C60.7313 75.6443 60.4813 75.6206 60.2441 75.6764C60.0046 75.733 59.709 75.9594 59.1178 76.4406L56.6999 78.3679C56.4312 78.5646 56.1801 78.7823 55.9491 79.0189C55.6318 79.3784 55.4197 79.812 55.3342 80.2755C55.2922 80.5964 55.2783 80.9202 55.2928 81.2434V83.7396C55.2783 84.0628 55.2922 84.3866 55.3342 84.7075C55.4197 85.171 55.6318 85.6046 55.9491 85.9641C56.1798 86.2027 56.4309 86.4223 56.6999 86.6207Z" fill="white"/>
<path d="M35.4346 78.1444C35.4346 77.2189 35.4346 76.7547 35.6238 76.401C35.79 76.0891 36.0548 75.8356 36.3805 75.6764C36.75 75.4953 37.2348 75.4953 38.2014 75.4953H47.022C49.5553 75.4953 50.8234 75.4953 51.79 75.9679C52.641 76.384 53.333 77.0466 53.7676 77.8613C54.2612 78.7868 54.2612 80.001 54.2612 82.4236V86.8557C54.2612 87.7812 54.2612 88.2453 54.072 88.5991C53.9058 88.9109 53.641 89.1645 53.3153 89.3236C52.9458 89.5047 52.461 89.5047 51.4944 89.5047H42.6708C40.1375 89.5047 38.8694 89.5047 37.9028 89.0321C37.0519 88.6161 36.3598 87.9534 35.9253 87.1387C35.4316 86.2132 35.4316 84.9991 35.4316 82.5764L35.4346 78.1444Z" fill="white"/>
</g>
<path d="M329 68H342.893V83.3493H329V68Z" fill="#F8F4E5"/>
<path d="M329 85.657H342.893V101.006H337.83C335.488 101.006 333.242 99.9784 331.586 98.1489C329.93 96.3195 329 93.8383 329 91.2511V85.657Z" fill="#F8F4E5"/>
<path d="M359 75.6739C358.993 77.7159 358.253 79.6715 356.942 81.1105C355.63 82.5495 353.855 83.3542 352.007 83.3475H345.012V68H352.007C352.922 67.9965 353.829 68.1921 354.676 68.5759C355.523 68.9596 356.293 69.5239 356.942 70.2365C357.592 70.9491 358.108 71.7961 358.461 72.729C358.814 73.662 358.997 74.6626 359 75.6739Z" fill="#F8F4E5"/>
<path d="M359 93.1853C358.994 95.2275 358.253 97.1832 356.942 98.6223C355.63 100.061 353.855 100.866 352.007 100.859C351.091 100.863 350.184 100.667 349.337 100.283C348.491 99.8996 347.72 99.3353 347.071 98.6227C346.421 97.9101 345.905 97.0632 345.552 96.1302C345.199 95.1973 345.016 94.1966 345.012 93.1853C345.016 92.1741 345.199 91.1734 345.552 90.2404C345.905 89.3075 346.421 88.4606 347.071 87.748C347.72 87.0354 348.491 86.4711 349.337 86.0874C350.184 85.7037 351.091 85.508 352.007 85.5115C353.855 85.5047 355.63 86.3093 356.942 87.7484C358.253 89.1875 358.994 91.1432 359 93.1853Z" fill="#C2DB6F"/>
</g>
<defs>
<filter id="filter0_d_498_100" x="-4" y="-49" width="384" height="311" filterUnits="userSpaceOnUse" color-interpolation-filters="sRGB">
<feFlood flood-opacity="0" result="BackgroundImageFix"/>
<feColorMatrix in="SourceAlpha" type="matrix" values="0 0 0 0 0 0 0 0 0 0 0 0 0 0 0 0 0 0 127 0" result="hardAlpha"/>
<feOffset dy="4"/>
<feGaussianBlur stdDeviation="2"/>
<feComposite in2="hardAlpha" operator="out"/>
<feColorMatrix type="matrix" values="0 0 0 0 0 0 0 0 0 0 0 0 0 0 0 0 0 0 0.25 0"/>
<feBlend mode="normal" in2="BackgroundImageFix" result="effect1_dropShadow_498_100"/>
<feBlend mode="normal" in="SourceGraphic" in2="effect1_dropShadow_498_100" result="shape"/>
</filter>
<linearGradient id="paint0_linear_498_100" x1="48.5" y1="60" x2="48.5" y2="105" gradientUnits="userSpaceOnUse">
<stop stop-color="#03484C"/>
<stop offset="1" stop-color="#53AC59"/>
</linearGradient>
<clipPath id="clip0_498_100">
<rect width="47" height="45" fill="white" transform="translate(25 60)"/>
</clipPath>
</defs>
</svg>
