<svg width="60" height="60" viewBox="0 0 60 60" fill="none" xmlns="http://www.w3.org/2000/svg">
<g clip-path="url(#clip0_416_455)">
<path d="M19.8113 3.23853e-06H40.1887C42.7908 -0.00148494 45.3676 0.50993 47.7719 1.50502C50.1762 2.5001 52.3608 3.95934 54.2007 5.79929C56.0407 7.63924 57.4999 9.8238 58.495 12.2281C59.4901 14.6324 60.0015 17.2092 60 19.8113V40.1887C60.0015 42.7908 59.4901 45.3676 58.495 47.7719C57.4999 50.1762 56.0407 52.3608 54.2007 54.2007C52.3608 56.0407 50.1762 57.4999 47.7719 58.495C45.3676 59.4901 42.7908 60.0015 40.1887 60H19.8113C17.2092 60.0015 14.6324 59.4901 12.2281 58.495C9.8238 57.4999 7.63924 56.0407 5.79929 54.2007C3.95934 52.3608 2.5001 50.1762 1.50502 47.7719C0.50993 45.3676 -0.00148494 42.7908 3.23853e-06 40.1887V19.8113C-0.00148494 17.2092 0.50993 14.6324 1.50502 12.2281C2.5001 9.8238 3.95934 7.63924 5.79929 5.79929C7.63924 3.95934 9.8238 2.5001 12.2281 1.50502C14.6324 0.50993 17.2092 -0.00148494 19.8113 3.23853e-06Z" fill="url(#paint0_linear_416_455)"/>
<path d="M40.4679 35.4943L43.5547 38.0642C44.3094 38.6943 44.6868 39.0113 44.9925 39.083C45.2953 39.1575 45.6145 39.1258 45.8968 38.9932C46.179 38.8607 46.4073 38.6353 46.5434 38.3547C46.6793 38.0717 46.6793 37.6 46.6793 36.5962V23.3887C46.6793 22.4038 46.6793 21.9132 46.5434 21.6302C46.4073 21.3496 46.179 21.1242 45.8968 20.9917C45.6145 20.8591 45.2953 20.8274 44.9925 20.9019C44.6868 20.9774 44.3094 21.2792 43.5547 21.9208L40.4679 24.4906C40.125 24.7528 39.8044 25.0431 39.5095 25.3585C39.1045 25.8379 38.8337 26.416 38.7245 27.034C38.6709 27.4619 38.6532 27.8936 38.6717 28.3245V31.6528C38.6532 32.0837 38.6709 32.5154 38.7245 32.9434C38.8337 33.5614 39.1045 34.1395 39.5095 34.6189C39.804 34.9369 40.1246 35.2298 40.4679 35.4943Z" fill="white"/>
<path d="M13.3208 24.1925C13.3208 22.9585 13.3208 22.3397 13.5623 21.868C13.7745 21.4522 14.1126 21.1141 14.5283 20.9019C15 20.6604 15.6189 20.6604 16.8528 20.6604H28.1132C31.3472 20.6604 32.966 20.6604 34.2 21.2906C35.2863 21.8453 36.1698 22.7288 36.7245 23.8151C37.3547 25.0491 37.3547 26.668 37.3547 29.8981V35.8076C37.3547 37.0415 37.3547 37.6604 37.1132 38.1321C36.901 38.5478 36.5629 38.8859 36.1472 39.0981C35.6755 39.3396 35.0566 39.3396 33.8226 39.3396H22.5585C19.3245 39.3396 17.7057 39.3397 16.4717 38.7095C15.3854 38.1547 14.5019 37.2713 13.9472 36.1849C13.317 34.951 13.317 33.3321 13.317 30.1019L13.3208 24.1925Z" fill="white"/>
</g>
<defs>
<linearGradient id="paint0_linear_416_455" x1="30" y1="3.2385e-06" x2="30" y2="60" gradientUnits="userSpaceOnUse">
<stop stop-color="#03484C"/>
<stop offset="1" stop-color="#53AC59"/>
</linearGradient>
<clipPath id="clip0_416_455">
<rect width="60" height="60" fill="white"/>
</clipPath>
</defs>
</svg>
