<svg width="163" height="81" viewBox="0 0 163 81" fill="none" xmlns="http://www.w3.org/2000/svg">
<g clip-path="url(#clip0_416_463)">
<path d="M19.8113 3.23853e-06H40.1887C42.7908 -0.00148494 45.3676 0.50993 47.7719 1.50502C50.1762 2.5001 52.3608 3.95934 54.2007 5.79929C56.0407 7.63923 57.4999 9.82381 58.495 12.2281C59.4901 14.6324 60.0015 17.2092 60 19.8113V40.1887C60.0015 42.7908 59.4901 45.3676 58.495 47.7719C57.4999 50.1762 56.0407 52.3608 54.2007 54.2007C52.3608 56.0407 50.1762 57.4999 47.7719 58.495C45.3676 59.4901 42.7908 60.0015 40.1887 60H19.8113C17.2092 60.0015 14.6324 59.4901 12.2281 58.495C9.82381 57.4999 7.63923 56.0407 5.79929 54.2007C3.95934 52.3608 2.5001 50.1762 1.50502 47.7719C0.50993 45.3676 -0.00148494 42.7908 3.23853e-06 40.1887V19.8113C-0.00148494 17.2092 0.50993 14.6324 1.50502 12.2281C2.5001 9.82381 3.95934 7.63923 5.79929 5.79929C7.63923 3.95934 9.82381 2.5001 12.2281 1.50502C14.6324 0.50993 17.2092 -0.00148494 19.8113 3.23853e-06Z" fill="url(#paint0_linear_416_463)"/>
<path d="M40.4679 35.4943L43.5547 38.0642C44.3094 38.6943 44.6868 39.0113 44.9925 39.083C45.2953 39.1575 45.6145 39.1258 45.8968 38.9932C46.179 38.8607 46.4073 38.6353 46.5434 38.3547C46.6793 38.0717 46.6793 37.6 46.6793 36.5962V23.3887C46.6793 22.4038 46.6793 21.9132 46.5434 21.6302C46.4073 21.3496 46.179 21.1242 45.8968 20.9917C45.6145 20.8591 45.2953 20.8274 44.9925 20.9019C44.6868 20.9774 44.3094 21.2792 43.5547 21.9208L40.4679 24.4906C40.125 24.7528 39.8044 25.0431 39.5095 25.3585C39.1045 25.8379 38.8337 26.416 38.7245 27.034C38.6709 27.4619 38.6532 27.8936 38.6717 28.3245V31.6528C38.6532 32.0837 38.6709 32.5154 38.7245 32.9434C38.8337 33.5614 39.1045 34.1395 39.5095 34.6189C39.804 34.9369 40.1246 35.2298 40.4679 35.4943V35.4943Z" fill="white"/>
<path d="M13.3208 24.1925C13.3208 22.9585 13.3208 22.3397 13.5623 21.868C13.7745 21.4522 14.1126 21.1141 14.5283 20.9019C15 20.6604 15.6189 20.6604 16.8528 20.6604H28.1132C31.3472 20.6604 32.966 20.6604 34.2 21.2906C35.2863 21.8453 36.1698 22.7288 36.7245 23.8151C37.3547 25.0491 37.3547 26.668 37.3547 29.8981V35.8076C37.3547 37.0415 37.3547 37.6604 37.1132 38.1321C36.901 38.5478 36.5629 38.8859 36.1472 39.0981C35.6755 39.3396 35.0566 39.3396 33.8226 39.3396H22.5585C19.3245 39.3396 17.7057 39.3397 16.4717 38.7095C15.3854 38.1547 14.5019 37.2713 13.9472 36.1849C13.317 34.951 13.317 33.3321 13.317 30.1019L13.3208 24.1925Z" fill="white"/>
</g>
<path d="M67.4489 23V9.90909H70.9091V12.2188H71.0625C71.3352 11.4517 71.7898 10.8466 72.4261 10.4034C73.0625 9.96023 73.8239 9.73864 74.7102 9.73864C75.608 9.73864 76.3722 9.96307 77.0028 10.4119C77.6335 10.8551 78.054 11.4574 78.2642 12.2188H78.4006C78.6676 11.4688 79.1506 10.8693 79.8494 10.4205C80.554 9.96591 81.3864 9.73864 82.3466 9.73864C83.5682 9.73864 84.5597 10.1278 85.321 10.9062C86.0881 11.679 86.4716 12.7756 86.4716 14.196V23H82.8494V14.9119C82.8494 14.1847 82.6563 13.6392 82.2699 13.2756C81.8835 12.9119 81.4006 12.7301 80.821 12.7301C80.1619 12.7301 79.6477 12.9403 79.2784 13.3608C78.9091 13.7756 78.7244 14.3239 78.7244 15.0057V23H75.2045V14.8352C75.2045 14.1932 75.0199 13.6818 74.6506 13.3011C74.2869 12.9205 73.8068 12.7301 73.2102 12.7301C72.8068 12.7301 72.4432 12.8324 72.1193 13.0369C71.8011 13.2358 71.5483 13.517 71.3608 13.8807C71.1733 14.2386 71.0795 14.6591 71.0795 15.142V23H67.4489ZM95.3054 23.2557C93.9588 23.2557 92.7997 22.983 91.8281 22.4375C90.8622 21.8864 90.1179 21.108 89.5952 20.1023C89.0724 19.0909 88.8111 17.8949 88.8111 16.5142C88.8111 15.1676 89.0724 13.9858 89.5952 12.9688C90.1179 11.9517 90.8537 11.1591 91.8026 10.5909C92.7571 10.0227 93.8764 9.73864 95.1605 9.73864C96.0241 9.73864 96.8281 9.87784 97.5724 10.1562C98.3224 10.429 98.9759 10.8409 99.5327 11.392C100.095 11.9432 100.533 12.6364 100.845 13.4716C101.158 14.3011 101.314 15.2727 101.314 16.3864V17.3835H90.2599V15.1335H97.8963C97.8963 14.6108 97.7827 14.1477 97.5554 13.7443C97.3281 13.3409 97.0128 13.0256 96.6094 12.7983C96.2116 12.5653 95.7486 12.4489 95.2202 12.4489C94.669 12.4489 94.1804 12.5767 93.7543 12.8324C93.3338 13.0824 93.0043 13.4205 92.7656 13.8466C92.527 14.267 92.4048 14.7358 92.3991 15.2528V17.392C92.3991 18.0398 92.5185 18.5994 92.7571 19.071C93.0014 19.5426 93.3452 19.9062 93.7884 20.1619C94.2315 20.4176 94.7571 20.5455 95.3651 20.5455C95.7685 20.5455 96.1378 20.4886 96.473 20.375C96.8082 20.2614 97.0952 20.0909 97.3338 19.8636C97.5724 19.6364 97.7543 19.358 97.8793 19.0284L101.237 19.25C101.067 20.0568 100.717 20.7614 100.189 21.3636C99.6662 21.9602 98.9901 22.4261 98.1605 22.7614C97.3366 23.0909 96.3849 23.2557 95.3054 23.2557ZM109.649 23.2557C108.303 23.2557 107.143 22.983 106.172 22.4375C105.206 21.8864 104.462 21.108 103.939 20.1023C103.416 19.0909 103.155 17.8949 103.155 16.5142C103.155 15.1676 103.416 13.9858 103.939 12.9688C104.462 11.9517 105.197 11.1591 106.146 10.5909C107.101 10.0227 108.22 9.73864 109.504 9.73864C110.368 9.73864 111.172 9.87784 111.916 10.1562C112.666 10.429 113.32 10.8409 113.876 11.392C114.439 11.9432 114.876 12.6364 115.189 13.4716C115.501 14.3011 115.658 15.2727 115.658 16.3864V17.3835H104.604V15.1335H112.24C112.24 14.6108 112.126 14.1477 111.899 13.7443C111.672 13.3409 111.357 13.0256 110.953 12.7983C110.555 12.5653 110.092 12.4489 109.564 12.4489C109.013 12.4489 108.524 12.5767 108.098 12.8324C107.678 13.0824 107.348 13.4205 107.109 13.8466C106.871 14.267 106.749 14.7358 106.743 15.2528V17.392C106.743 18.0398 106.862 18.5994 107.101 19.071C107.345 19.5426 107.689 19.9062 108.132 20.1619C108.575 20.4176 109.101 20.5455 109.709 20.5455C110.112 20.5455 110.482 20.4886 110.817 20.375C111.152 20.2614 111.439 20.0909 111.678 19.8636C111.916 19.6364 112.098 19.358 112.223 19.0284L115.581 19.25C115.411 20.0568 115.061 20.7614 114.533 21.3636C114.01 21.9602 113.334 22.4261 112.504 22.7614C111.68 23.0909 110.729 23.2557 109.649 23.2557ZM124.99 9.90909V12.6364H117.107V9.90909H124.99ZM118.896 6.77273H122.527V18.9773C122.527 19.3125 122.578 19.5739 122.68 19.7614C122.783 19.9432 122.925 20.071 123.107 20.1449C123.294 20.2187 123.51 20.2557 123.754 20.2557C123.925 20.2557 124.095 20.2415 124.266 20.2131C124.436 20.179 124.567 20.1534 124.658 20.1364L125.229 22.8381C125.047 22.8949 124.791 22.9602 124.462 23.0341C124.132 23.1136 123.732 23.1619 123.26 23.179C122.385 23.2131 121.618 23.0966 120.959 22.8295C120.305 22.5625 119.797 22.1477 119.433 21.5852C119.07 21.0227 118.891 20.3125 118.896 19.4545V6.77273ZM127.355 23V9.90909H130.986V23H127.355ZM129.179 8.22159C128.639 8.22159 128.176 8.04261 127.79 7.68466C127.409 7.32102 127.219 6.88636 127.219 6.38068C127.219 5.88068 127.409 5.4517 127.79 5.09375C128.176 4.73011 128.639 4.54829 129.179 4.54829C129.719 4.54829 130.179 4.73011 130.56 5.09375C130.946 5.4517 131.139 5.88068 131.139 6.38068C131.139 6.88636 130.946 7.32102 130.56 7.68466C130.179 8.04261 129.719 8.22159 129.179 8.22159ZM137.525 15.4318V23H133.894V9.90909H137.354V12.2188H137.508C137.798 11.4574 138.283 10.8551 138.965 10.4119C139.647 9.96307 140.474 9.73864 141.445 9.73864C142.354 9.73864 143.147 9.9375 143.823 10.3352C144.499 10.733 145.025 11.3011 145.4 12.0398C145.775 12.7727 145.962 13.6477 145.962 14.6648V23H142.332V15.3125C142.337 14.5114 142.133 13.8864 141.718 13.4375C141.303 12.983 140.732 12.7557 140.005 12.7557C139.516 12.7557 139.085 12.8608 138.71 13.071C138.34 13.2812 138.05 13.5881 137.84 13.9915C137.636 14.3892 137.531 14.8693 137.525 15.4318ZM154.722 28.1818C153.545 28.1818 152.537 28.0199 151.696 27.696C150.861 27.3778 150.196 26.9432 149.702 26.392C149.207 25.8409 148.886 25.2216 148.739 24.5341L152.097 24.0824C152.199 24.3438 152.361 24.5881 152.582 24.8153C152.804 25.0426 153.097 25.2244 153.46 25.3608C153.83 25.5028 154.278 25.5739 154.807 25.5739C155.597 25.5739 156.247 25.3807 156.759 24.9943C157.276 24.6136 157.534 23.9744 157.534 23.0767V20.6818H157.381C157.222 21.0455 156.983 21.3892 156.665 21.7131C156.347 22.0369 155.938 22.3011 155.438 22.5057C154.938 22.7102 154.341 22.8125 153.648 22.8125C152.665 22.8125 151.77 22.5852 150.963 22.1307C150.162 21.6705 149.523 20.9687 149.045 20.0256C148.574 19.0767 148.338 17.8778 148.338 16.429C148.338 14.946 148.58 13.7074 149.062 12.7131C149.545 11.7187 150.188 10.9744 150.989 10.4801C151.795 9.9858 152.679 9.73864 153.639 9.73864C154.372 9.73864 154.986 9.86364 155.48 10.1136C155.974 10.358 156.372 10.6648 156.673 11.0341C156.98 11.3977 157.216 11.7557 157.381 12.108H157.517V9.90909H161.122V23.1278C161.122 24.2415 160.849 25.1733 160.304 25.9233C159.759 26.6733 159.003 27.2358 158.037 27.6108C157.077 27.9915 155.972 28.1818 154.722 28.1818ZM154.798 20.0852C155.384 20.0852 155.878 19.9403 156.281 19.6506C156.69 19.3551 157.003 18.9347 157.219 18.3892C157.44 17.8381 157.551 17.179 157.551 16.4119C157.551 15.6449 157.443 14.9801 157.227 14.4176C157.011 13.8494 156.699 13.4091 156.29 13.0966C155.881 12.7841 155.384 12.6278 154.798 12.6278C154.202 12.6278 153.699 12.7898 153.29 13.1136C152.881 13.4318 152.571 13.875 152.361 14.4432C152.151 15.0114 152.045 15.6676 152.045 16.4119C152.045 17.1676 152.151 17.821 152.361 18.3722C152.577 18.9176 152.886 19.3409 153.29 19.642C153.699 19.9375 154.202 20.0852 154.798 20.0852Z" fill="#03484C"/>
<path d="M67.4489 46V32.9091H70.9091V35.2188H71.0625C71.3352 34.4517 71.7898 33.8466 72.4261 33.4034C73.0625 32.9602 73.8239 32.7386 74.7102 32.7386C75.608 32.7386 76.3722 32.9631 77.0028 33.4119C77.6335 33.8551 78.054 34.4574 78.2642 35.2188H78.4006C78.6676 34.4688 79.1506 33.8693 79.8494 33.4205C80.554 32.9659 81.3864 32.7386 82.3466 32.7386C83.5682 32.7386 84.5597 33.1278 85.321 33.9062C86.0881 34.679 86.4716 35.7756 86.4716 37.196V46H82.8494V37.9119C82.8494 37.1847 82.6563 36.6392 82.2699 36.2756C81.8835 35.9119 81.4006 35.7301 80.821 35.7301C80.1619 35.7301 79.6477 35.9403 79.2784 36.3608C78.9091 36.7756 78.7244 37.3239 78.7244 38.0057V46H75.2045V37.8352C75.2045 37.1932 75.0199 36.6818 74.6506 36.3011C74.2869 35.9205 73.8068 35.7301 73.2102 35.7301C72.8068 35.7301 72.4432 35.8324 72.1193 36.0369C71.8011 36.2358 71.5483 36.517 71.3608 36.8807C71.1733 37.2386 71.0795 37.6591 71.0795 38.142V46H67.4489ZM95.2543 46.2557C93.9304 46.2557 92.7855 45.9744 91.8196 45.4119C90.8594 44.8437 90.1179 44.054 89.5952 43.0426C89.0724 42.0256 88.8111 40.8466 88.8111 39.5057C88.8111 38.1534 89.0724 36.9716 89.5952 35.9602C90.1179 34.9432 90.8594 34.1534 91.8196 33.5909C92.7855 33.0227 93.9304 32.7386 95.2543 32.7386C96.5781 32.7386 97.7202 33.0227 98.6804 33.5909C99.6463 34.1534 100.391 34.9432 100.913 35.9602C101.436 36.9716 101.697 38.1534 101.697 39.5057C101.697 40.8466 101.436 42.0256 100.913 43.0426C100.391 44.054 99.6463 44.8437 98.6804 45.4119C97.7202 45.9744 96.5781 46.2557 95.2543 46.2557ZM95.2713 43.4432C95.8736 43.4432 96.3764 43.2727 96.7798 42.9318C97.1832 42.5852 97.4872 42.1136 97.6918 41.517C97.902 40.9205 98.0071 40.2415 98.0071 39.4801C98.0071 38.7188 97.902 38.0398 97.6918 37.4432C97.4872 36.8466 97.1832 36.375 96.7798 36.0284C96.3764 35.6818 95.8736 35.5085 95.2713 35.5085C94.6634 35.5085 94.152 35.6818 93.7372 36.0284C93.3281 36.375 93.0185 36.8466 92.8082 37.4432C92.6037 38.0398 92.5014 38.7188 92.5014 39.4801C92.5014 40.2415 92.6037 40.9205 92.8082 41.517C93.0185 42.1136 93.3281 42.5852 93.7372 42.9318C94.152 43.2727 94.6634 43.4432 95.2713 43.4432ZM104.126 46V28.5455H107.757V35.108H107.868C108.027 34.7557 108.257 34.3977 108.558 34.0341C108.865 33.6648 109.263 33.358 109.751 33.1136C110.246 32.8636 110.859 32.7386 111.592 32.7386C112.547 32.7386 113.428 32.9886 114.234 33.4886C115.041 33.983 115.686 34.7301 116.169 35.7301C116.652 36.7244 116.893 37.9716 116.893 39.4716C116.893 40.9318 116.658 42.1648 116.186 43.1705C115.72 44.1705 115.084 44.929 114.277 45.446C113.476 45.9574 112.578 46.2131 111.584 46.2131C110.879 46.2131 110.28 46.0966 109.786 45.8636C109.297 45.6307 108.896 45.3381 108.584 44.9858C108.271 44.6278 108.033 44.267 107.868 43.9034H107.706V46H104.126ZM107.68 39.4545C107.68 40.233 107.788 40.9119 108.004 41.4915C108.22 42.071 108.533 42.5227 108.942 42.8466C109.351 43.1648 109.848 43.3239 110.433 43.3239C111.024 43.3239 111.524 43.1619 111.933 42.8381C112.342 42.5085 112.652 42.054 112.862 41.4744C113.078 40.8892 113.186 40.2159 113.186 39.4545C113.186 38.6989 113.081 38.0341 112.871 37.4602C112.661 36.8864 112.351 36.4375 111.942 36.1136C111.533 35.7898 111.03 35.6278 110.433 35.6278C109.842 35.6278 109.342 35.7841 108.933 36.0966C108.53 36.4091 108.22 36.8523 108.004 37.4261C107.788 38 107.68 38.6761 107.68 39.4545ZM119.316 46V32.9091H122.947V46H119.316ZM121.14 31.2216C120.6 31.2216 120.137 31.0426 119.751 30.6847C119.37 30.321 119.18 29.8864 119.18 29.3807C119.18 28.8807 119.37 28.4517 119.751 28.0938C120.137 27.7301 120.6 27.5483 121.14 27.5483C121.68 27.5483 122.14 27.7301 122.521 28.0938C122.907 28.4517 123.1 28.8807 123.1 29.3807C123.1 29.8864 122.907 30.321 122.521 30.6847C122.14 31.0426 121.68 31.2216 121.14 31.2216ZM129.486 28.5455V46H125.855V28.5455H129.486ZM138.36 46.2557C137.013 46.2557 135.854 45.983 134.883 45.4375C133.917 44.8864 133.173 44.108 132.65 43.1023C132.127 42.0909 131.866 40.8949 131.866 39.5142C131.866 38.1676 132.127 36.9858 132.65 35.9688C133.173 34.9517 133.908 34.1591 134.857 33.5909C135.812 33.0227 136.931 32.7386 138.215 32.7386C139.079 32.7386 139.883 32.8778 140.627 33.1562C141.377 33.429 142.031 33.8409 142.587 34.392C143.15 34.9432 143.587 35.6364 143.9 36.4716C144.212 37.3011 144.369 38.2727 144.369 39.3864V40.3835H133.315V38.1335H140.951C140.951 37.6108 140.837 37.1477 140.61 36.7443C140.383 36.3409 140.067 36.0256 139.664 35.7983C139.266 35.5653 138.803 35.4489 138.275 35.4489C137.724 35.4489 137.235 35.5767 136.809 35.8324C136.388 36.0824 136.059 36.4205 135.82 36.8466C135.582 37.267 135.46 37.7358 135.454 38.2528V40.392C135.454 41.0398 135.573 41.5994 135.812 42.071C136.056 42.5426 136.4 42.9062 136.843 43.1619C137.286 43.4176 137.812 43.5455 138.42 43.5455C138.823 43.5455 139.192 43.4886 139.528 43.375C139.863 43.2614 140.15 43.0909 140.388 42.8636C140.627 42.6364 140.809 42.358 140.934 42.0284L144.292 42.25C144.121 43.0568 143.772 43.7614 143.244 44.3636C142.721 44.9602 142.045 45.4261 141.215 45.7614C140.391 46.0909 139.44 46.2557 138.36 46.2557Z" fill="#03484C"/>
<defs>
<linearGradient id="paint0_linear_416_463" x1="30" y1="3.2385e-06" x2="30" y2="60" gradientUnits="userSpaceOnUse">
<stop stop-color="#03484C"/>
<stop offset="1" stop-color="#53AC59"/>
</linearGradient>
<clipPath id="clip0_416_463">
<rect width="60" height="60" fill="white"/>
</clipPath>
</defs>
</svg>
